<?xml version="1.0" encoding="UTF-8"?><svg id="b" xmlns="http://www.w3.org/2000/svg" viewBox="0 0 51.46 106.54"><defs><style>.d{fill:#f2f2f2;}.e{opacity:.94;}</style></defs><g id="c"><g class="e"><path class="d" d="M12.7,0h.43V93.84c0,7.01-5.69,12.7-12.7,12.7H0V12.7C0,5.69,5.69,0,12.7,0Z"/><path class="d" d="M44.78,106.06c-1.54-1.01-4.51-3.48-6.05-4.73-2.89-2.35-2.81-8.84-2.81-8.84V47.28s0-.31-.21-.51c-.13-.13-.3-.21-.49-.21h0c-6.62,0-11.99,5.58-11.99,12.46v35.05c0,6.88,5.37,12.46,11.99,12.46l9.44-.03c.23,0,.32-.32,.13-.45Z"/><path class="d" d="M51.02,14.9h.43V99.94h-6.84c-3.47,0-6.3-2.82-6.3-6.3V27.6c0-7.01,5.69-12.7,12.7-12.7Z"/></g></g></svg>