<?xml version="1.0" encoding="UTF-8"?><svg id="b" xmlns="http://www.w3.org/2000/svg" xmlns:xlink="http://www.w3.org/1999/xlink" viewBox="0 0 209.35 209.35"><defs><style>.aa{fill:url(#u);}.ab{fill:url(#t);}.ac{fill:url(#y);}.ad{fill:url(#w);}.ae{fill:url(#x);}.af{fill:url(#z);}.ag{fill:url(#j);}.ah{fill:url(#g);}.ai{fill:url(#m);}.aj{fill:url(#h);}.ak{fill:url(#i);}.al{fill:url(#q);}.am{fill:url(#r);}.an{fill:url(#o);}.ao{fill:url(#p);}.ap{fill:url(#k);}.aq{fill:url(#n);}.ar{fill:url(#l);}.as{fill:url(#f);}.at{fill:url(#d);}.au{fill:url(#s);}.av{fill:url(#e);}.aw{fill:url(#v);}</style><linearGradient id="d" x1="74.61" y1="104.51" x2="119.65" y2="104.51" gradientUnits="userSpaceOnUse"><stop offset=".02" stop-color="#ef4860"/><stop offset="1" stop-color="#dd1047"/></linearGradient><linearGradient id="e" x1="78.33" y1="80.31" x2="148.98" y2="80.31" gradientUnits="userSpaceOnUse"><stop offset="0" stop-color="#379278"/><stop offset="1" stop-color="#1e514d"/></linearGradient><linearGradient id="f" x1="50.65" y1="111.85" x2="84.39" y2="111.85" gradientUnits="userSpaceOnUse"><stop offset="0" stop-color="#2c1e3b"/><stop offset="1" stop-color="#18121f"/></linearGradient><linearGradient id="g" x1="45.53" y1="107.94" x2="56.06" y2="107.94" gradientUnits="userSpaceOnUse"><stop offset="0" stop-color="#fdd259"/><stop offset="1" stop-color="#fd8c28"/></linearGradient><linearGradient id="h" x1="48.25" y1="67.4" x2="131.76" y2="67.4" xlink:href="#e"/><linearGradient id="i" x1="134.01" y1="109.23" x2="170.51" y2="109.23" xlink:href="#f"/><linearGradient id="j" x1="165.88" y1="122.28" x2="179.09" y2="122.28" xlink:href="#d"/><linearGradient id="k" x1="104.67" y1="134.51" x2="209.35" y2="134.51" xlink:href="#e"/><linearGradient id="l" x1="143.04" y1="171.88" x2="200.8" y2="171.88" gradientUnits="userSpaceOnUse"><stop offset="0" stop-color="#7ceee2"/><stop offset="1" stop-color="#64a2e2"/></linearGradient><linearGradient id="m" x1="12.7" y1="180.1" x2="138.64" y2="180.1" xlink:href="#d"/><linearGradient id="n" x1="0" y1="86.73" x2="41.51" y2="86.73" xlink:href="#e"/><linearGradient id="o" x1="42.9" y1="19.33" x2="59.62" y2="19.33" xlink:href="#f"/><linearGradient id="p" x1="64.93" y1="25.21" x2="191.32" y2="25.21" xlink:href="#e"/><linearGradient id="q" x1="152.56" y1="54.92" x2="204.01" y2="54.92" xlink:href="#g"/><linearGradient id="r" x1="124.73" y1="25.91" x2="151.08" y2="25.91" xlink:href="#f"/><linearGradient id="s" x1="15.22" y1="152.22" x2="96.68" y2="152.22" xlink:href="#f"/><linearGradient id="t" x1="15" y1="92.65" x2="25.97" y2="92.65" xlink:href="#l"/><linearGradient id="u" x1="21.18" y1="44.98" x2="99.2" y2="44.98" xlink:href="#e"/><linearGradient id="v" x1="30" y1="102.59" x2="58.12" y2="102.59" xlink:href="#e"/><linearGradient id="w" x1="52.54" y1="162.86" x2="148.42" y2="162.86" xlink:href="#g"/><linearGradient id="x" x1="72.43" y1="132.6" x2="149.1" y2="132.6" xlink:href="#e"/><linearGradient id="y" x1="119.26" y1="68.11" x2="179.35" y2="68.11" xlink:href="#e"/><linearGradient id="z" x1="101.67" y1="26.91" x2="119.54" y2="26.91" xlink:href="#l"/></defs><g id="c"><g><path class="at" d="M100.21,134.41l-5.79-1.47c-11.85-4.3-19.81-15.66-19.81-28.26,0-16.57,13.48-30.06,30.06-30.06v8c-12.16,0-22.06,9.9-22.06,22.06,0,8.01,4.38,15.33,11.19,19.2l1.24-7.73c-3.35-2.82-5.35-7-5.35-11.47,0-8.26,6.72-14.97,14.97-14.97s14.97,6.72,14.97,14.97c0,7.08-5.03,13.25-11.96,14.67l-1.6-7.84c3.22-.66,5.56-3.53,5.56-6.83,0-3.85-3.13-6.97-6.97-6.97s-6.97,3.13-6.97,6.97c0,2.55,1.39,4.89,3.62,6.12l2.47,1.36-3.58,22.26Z"/><path class="av" d="M126.74,100.37l-.98-3.19c-2.23-7.23-8.24-12.49-16.09-14.07l1.58-7.84c9.61,1.93,17.24,7.96,20.98,16.4l6.54-.78c-3.12-7.61-12.06-22.63-34.09-22.63-7.84,0-15.31,2.45-21.6,7.09l-4.75-6.44c7.67-5.66,16.78-8.65,26.34-8.65,35.36,0,43.25,32.8,43.32,33.13l.99,4.33-22.24,2.65Z"/><path class="as" d="M68.89,151.92l-2.92-2.53c-6.52-5.64-11.81-12.77-15.31-20.61l7.3-3.26c2.51,5.61,6.08,10.8,10.43,15.19l4.58-4.93c-8.12-8.28-12.71-19.4-12.71-31.11,0-12.5,5.31-24.49,14.58-32.9l5.38,5.92c-7.6,6.89-11.95,16.73-11.95,26.98s4.72,20.9,12.94,27.84l3.2,2.71-15.51,16.7Z"/><path class="ah" d="M48.46,123.11c-1.95-5.94-2.93-12.14-2.93-18.44,0-4.01,.4-8.02,1.2-11.92l7.84,1.6c-.69,3.37-1.04,6.84-1.04,10.31,0,5.45,.85,10.82,2.53,15.95l-7.6,2.49Z"/><path class="aj" d="M55.88,89.28l-7.63-2.41c7.79-24.73,30.47-41.35,56.42-41.35,9.41,0,18.78,2.27,27.09,6.56l-3.67,7.11c-7.28-3.76-15.16-5.67-23.42-5.67-22.44,0-42.05,14.37-48.79,35.75Z"/><path class="ak" d="M152.41,162.24l-15.91-17.34,2.92-2.71c10.42-9.65,16.39-23.33,16.39-37.52,0-16.66-8.15-32.32-21.81-41.9l4.6-6.55c15.79,11.08,25.21,29.19,25.21,48.45,0,15.08-5.83,29.66-16.12,40.58l5.11,5.57c4.21-4.38,7.78-9.3,10.66-14.66l7.05,3.79c-3.93,7.32-9.03,13.9-15.15,19.56l-2.95,2.73Z"/><path class="ag" d="M173.22,134.34l-7.34-3.18c2.88-6.65,4.64-13.69,5.24-20.93l7.97,.66c-.67,8.12-2.64,16.01-5.87,23.46Z"/><path class="ap" d="M104.67,194.35v-8c45.04,0,81.67-36.64,81.67-81.67,0-7.73-1.06-13.16-2.9-19.93l-1.04-3.83,22.36-6.23,1.04,3.91c2.45,9.17,3.54,17.21,3.54,26.09,0,10.74-1.62,21.32-4.81,31.46l-7.63-2.4c2.95-9.37,4.44-19.14,4.44-29.06,0-6.87-.72-13.21-2.29-20.1l-6.9,1.92c1.37,5.72,2.19,11.15,2.19,18.18,0,49.45-40.23,89.67-89.67,89.67Z"/><path class="ar" d="M146.22,200.78l-3.18-7.34c22.7-9.83,40.61-27.74,50.42-50.45l7.34,3.17c-10.62,24.58-30.01,43.98-54.59,54.62Z"/><path class="ai" d="M104.67,209.35c-38.36,0-73.61-20.95-91.98-54.67l7.03-3.83c16.97,31.15,49.52,50.49,84.95,50.49,10.75,0,21.3-1.75,31.38-5.2l2.59,7.57c-10.91,3.74-22.34,5.64-33.97,5.64Z"/><path class="aq" d="M9.37,148.03C3.15,134.38,0,119.79,0,104.67,0,74.23,13.23,45.34,36.29,25.43l5.23,6.05C20.22,49.88,8,76.55,8,104.67c0,13.96,2.91,27.44,8.65,40.04l-7.28,3.32Z"/><path class="an" d="M47.62,26.62l-4.73-6.46c4.12-3.01,8.48-5.75,12.99-8.12l3.73,7.08c-4.16,2.19-8.19,4.72-12,7.5Z"/><path class="ao" d="M184.7,50.42c-18.04-26.56-47.96-42.42-80.03-42.42-12.7,0-25.05,2.43-36.7,7.21l-3.04-7.4C77.55,2.63,90.92,0,104.67,0c34.72,0,67.11,17.17,86.64,45.92l-6.62,4.5Z"/><path class="al" d="M182.2,78.31l-1.36-3.53c-5.7-14.83-15.48-27.54-28.29-36.76l4.67-6.49c13.05,9.4,23.24,22.09,29.65,36.88l6.55-2.1c-1.6-3.7-3.44-7.31-5.49-10.77l6.88-4.07c3,5.06,5.58,10.42,7.67,15.91l1.51,3.95-21.81,6.99Z"/><path class="am" d="M146.96,34.34c-6.92-4.15-14.4-7.21-22.24-9.1l1.87-7.78c8.63,2.08,16.86,5.45,24.47,10.01l-4.11,6.86Z"/><path class="au" d="M95.9,193.92c-20.97-2.04-40.65-11.5-55.42-26.64-14.8-15.17-23.76-35.13-25.25-56.21l7.98-.56c2.82,39.85,33.71,71.58,73.47,75.44l-.77,7.96Z"/><path class="ab" d="M23,104.67h-8c0-8.16,1.1-16.25,3.26-24.05l7.71,2.14c-1.97,7.1-2.97,14.47-2.97,21.91Z"/><path class="aa" d="M28.63,74.81l-7.45-2.93C33.24,41.2,61.02,19.66,93.68,15.67l4.24-.52,1.29,22.89-3.72,.45c-11.82,1.45-22.99,6.09-32.29,13.43l-4.96-6.28c9.47-7.47,20.66-12.46,32.56-14.54l-.39-6.87c-27.89,4.9-51.33,23.96-61.79,50.57Z"/><path class="aw" d="M49.09,154.55c-12.31-13.71-19.1-31.43-19.1-49.88,0-20.7,8.01-39.89,22.55-54.04l5.58,5.73c-12.98,12.63-20.13,29.78-20.13,48.3,0,16.47,6.06,32.29,17.05,44.53l-5.95,5.35Z"/><path class="ad" d="M104.67,179.35c-19.59,0-38.1-7.53-52.13-21.21l5.58-5.73c12.52,12.21,29.05,18.93,46.54,18.93,11.36,0,22.43-2.87,32.28-8.32l-4.18-5.87c-7.22,4.03-15.07,6.13-24.37,6.57l-.38-7.99c9.25-.44,16.77-2.74,23.66-7.26l3.22-2.11,13.52,18.98-3.54,2.27c-12,7.68-25.9,11.74-40.21,11.74Z"/><path class="ae" d="M104.67,163.82c-9.75,0-19.42-2.42-27.96-7.01l-4.28-2.3,14.22-17.35,2.71,1.06c.07,.03,7.48,2.88,15.31,2.88,18.92,0,34.05-13.36,36.17-31.12l-6.35,.44c-1.85,14.09-14.05,24.31-29.82,24.31v-8c12.78,0,22.06-8.44,22.06-20.06v-3.73l22.36-1.56v4.29c0,24.35-19.51,43.42-44.42,43.42-6.25,0-12.11-1.46-15.43-2.48l-4.31,5.25c6.21,2.59,12.95,3.95,19.73,3.95v8Z"/><g><path class="ac" d="M158,51.9c-10.26-10.46-23.12-17.43-37.18-20.34l-1.56,7.82c30.1,6.19,52.09,32.66,52.09,65.3h8c0-19.99-7.58-38.74-21.34-52.78Z"/><path class="af" d="M117.25,30.9c-2.5-.39-5.02-.67-7.58-.8v-7.01c2.9,.14,5.79,.43,8.63,.88l1.23-7.9c-4.55-.71-9.21-1.07-13.86-1.07h-4v23h4c3.59,0,7.1,.29,10.52,.82l1.06-7.92Z"/></g></g></g></svg>