<?xml version="1.0" encoding="UTF-8"?><svg id="b" xmlns="http://www.w3.org/2000/svg" xmlns:xlink="http://www.w3.org/1999/xlink" viewBox="0 0 234.12 143.85"><defs><style>.ae{fill:url(#ad);}.af{fill:url(#ac);}.ag{fill:url(#aa);}.ah{fill:url(#ab);}.ai{fill:url(#u);}.aj{fill:url(#t);}.ak{fill:url(#y);}.al{fill:url(#w);}.am{fill:url(#x);}.an{fill:url(#z);}.ao{fill:url(#j);}.ap{fill:url(#g);}.aq{fill:url(#m);}.ar{fill:url(#h);}.as{fill:url(#i);}.at{fill:url(#q);}.au{fill:url(#r);}.av{fill:url(#o);}.aw{fill:url(#p);}.ax{fill:url(#k);}.ay{fill:url(#n);}.az{fill:url(#l);}.ba{fill:url(#f);}.bb{fill:url(#s);}.bc{fill:url(#e);}.bd{fill:url(#v);}.be{fill:none;}.bf{clip-path:url(#d);}</style><clipPath id="d"><rect class="be" width="234.12" height="143.85"/></clipPath><linearGradient id="e" x1="81.36" y1="61.27" x2="242.85" y2="61.27" gradientUnits="userSpaceOnUse"><stop offset="0" stop-color="#2c1e3b"/><stop offset="1" stop-color="#18121f"/></linearGradient><linearGradient id="f" x1="71.15" y1="98.28" x2="248.23" y2="98.28" gradientUnits="userSpaceOnUse"><stop offset="0" stop-color="#379278"/><stop offset="1" stop-color="#1e514d"/></linearGradient><linearGradient id="g" x1="73.92" y1="49.64" x2="163.66" y2="49.64" gradientUnits="userSpaceOnUse"><stop offset="0" stop-color="#fdd259"/><stop offset="1" stop-color="#fd8c28"/></linearGradient><linearGradient id="h" x1="-14.87" y1="94.16" x2="102.46" y2="94.16" xlink:href="#f"/><linearGradient id="i" x1="-8.96" y1="43.16" x2="73.93" y2="43.16" xlink:href="#f"/><linearGradient id="j" x1="6.53" y1="103.19" x2="84.78" y2="103.19" gradientUnits="userSpaceOnUse"><stop offset=".02" stop-color="#ef4860"/><stop offset="1" stop-color="#dd1047"/></linearGradient><linearGradient id="k" x1="26.54" y1="126.61" x2="52.99" y2="126.61" gradientTransform="translate(101.18 8.96) rotate(45)" gradientUnits="userSpaceOnUse"><stop offset="0" stop-color="#7ceee2"/><stop offset="1" stop-color="#64a2e2"/></linearGradient><linearGradient id="l" x1="-14.42" y1="98.47" x2="66.02" y2="98.47" xlink:href="#f"/><linearGradient id="m" x1="-10.54" y1="138.56" x2="28.62" y2="138.56" xlink:href="#e"/><linearGradient id="n" x1="144.36" y1="111.56" x2="243.5" y2="111.56" xlink:href="#j"/><linearGradient id="o" x1="201.71" y1="106.36" x2="249.6" y2="106.36" gradientTransform="matrix(1, 0, 0, 1, 0, 0)" xlink:href="#k"/><linearGradient id="p" x1="91.23" y1="128.52" x2="174.09" y2="128.52" xlink:href="#f"/><linearGradient id="q" x1="172.21" y1="146.17" x2="189.3" y2="146.17" gradientTransform="translate(156.3 -85) rotate(45)" xlink:href="#e"/><linearGradient id="r" x1="111.55" y1="137.11" x2="154.86" y2="137.11" xlink:href="#g"/><linearGradient id="s" x1="188.26" y1="46.51" x2="243.85" y2="46.51" gradientTransform="translate(96.17 -139.15) rotate(45)" xlink:href="#g"/><linearGradient id="t" x1="162.87" y1="9.81" x2="190.34" y2="9.81" xlink:href="#j"/><linearGradient id="u" x1="-9.54" y1="34.8" x2="32.2" y2="34.8" gradientTransform="translate(27.93 2.18) rotate(45)" xlink:href="#k"/><linearGradient id="v" x1="199.71" y1="30.75" x2="244.42" y2="30.75" gradientTransform="translate(86.79 -148.01) rotate(45)" xlink:href="#f"/><linearGradient id="w" x1="68.94" y1="37.14" x2="113.92" y2="37.14" gradientTransform="translate(53.04 -53.77) rotate(45)" xlink:href="#e"/><linearGradient id="x" x1="86.57" y1="27.36" x2="151.55" y2="27.36" xlink:href="#f"/><linearGradient id="y" x1="53.62" y1="7.03" x2="67.67" y2="7.03" gradientTransform="translate(22.73 -40.82) rotate(45)" xlink:href="#f"/><linearGradient id="z" x1="111.79" y1="16.41" x2="127.8" y2="16.41" gradientTransform="translate(46.7 -79.91) rotate(45)" xlink:href="#k"/><linearGradient id="aa" x1="222.82" y1="20.78" x2="241.22" y2="20.78" gradientTransform="translate(82.66 -157.98) rotate(45)" xlink:href="#e"/><linearGradient id="ab" x1="-9" y1="20.97" x2="16.14" y2="20.97" gradientTransform="translate(15.87 3.62) rotate(45.01)" xlink:href="#g"/><linearGradient id="ac" x1="32.17" y1="7.53" x2="45.22" y2="7.53" gradientTransform="translate(16.66 -25.16) rotate(45)" xlink:href="#f"/><linearGradient id="ad" x1="162.4" y1="90.72" x2="181.43" y2="90.72" gradientTransform="translate(114.52 -95) rotate(45)" xlink:href="#e"/></defs><g id="c"><g class="bf"><g><polygon class="bc" points="107.28 101.47 81.36 75.54 87.02 69.89 107.28 90.16 176.37 21.07 242.85 87.56 237.2 93.22 176.37 32.39 107.28 101.47"/><polygon class="ba" points="76.81 153.89 71.15 148.23 176.71 42.68 220.3 86.27 193.2 113.38 206.65 126.83 222.15 111.34 248.23 137.42 242.57 143.08 222.15 122.65 206.65 138.15 181.88 113.38 208.99 86.27 176.71 53.99 76.81 153.89"/><polygon class="ap" points="107.84 80.38 73.92 46.47 79.57 40.81 107.84 69.07 158 18.9 163.66 24.56 107.84 80.38"/><polygon class="ar" points="54.4 155.89 48.74 150.23 91.15 107.82 58.62 75.3 69.93 63.99 49.68 43.75 -9.22 102.64 -14.87 96.99 49.68 32.43 81.24 63.99 69.93 75.3 102.46 107.82 54.4 155.89"/><polygon class="as" points="-3.3 75.31 -8.96 69.65 49.68 11.01 73.93 35.26 68.27 40.92 49.68 22.33 -3.3 75.31"/><polygon class="ao" points="41.48 153.95 6.53 119 32.04 93.49 60.24 120.7 73.39 107.55 34.19 69.34 51.11 52.42 60.89 62.2 55.23 67.86 51.11 63.74 45.57 69.27 84.78 107.47 60.35 131.91 32.14 104.7 17.84 119 47.14 148.3 41.48 153.95"/><rect class="ax" x="35.77" y="111.91" width="8" height="29.41" transform="translate(-77.88 65.21) rotate(-45)"/><polygon class="az" points="-8.77 124.16 -14.42 118.5 31.29 72.79 66.02 107.51 60.36 113.16 31.29 84.1 -8.77 124.16"/><polygon class="aq" points="22.97 153.89 3.63 134.55 -4.88 143.06 -10.54 137.4 3.63 123.23 28.62 148.23 22.97 153.89"/><polygon class="ay" points="237.84 159.87 222.23 144.26 207.77 158.72 144.36 95.3 176.41 63.25 200.3 87.15 177.72 109.72 172.07 104.06 188.99 87.15 176.41 74.57 155.67 95.3 207.77 147.4 222.23 132.94 243.5 154.21 237.84 159.87"/><polygon class="av" points="243.94 121.77 224.43 102.27 207.37 119.33 201.71 113.68 224.43 90.95 249.6 116.12 243.94 121.77"/><polygon class="aw" points="153.07 156.24 147.41 150.58 162.77 135.22 139.68 112.12 96.88 154.92 91.23 149.26 139.68 100.81 174.09 135.22 153.07 156.24"/><rect class="at" x="176.75" y="138.09" width="8" height="16.17" transform="translate(-50.42 170.62) rotate(-45)"/><polygon class="au" points="134.58 154.72 128.92 149.07 143.54 134.45 139.9 130.8 117.21 153.5 111.55 147.84 139.9 119.49 154.86 134.45 134.58 154.72"/><rect class="bb" x="212.06" y="11.2" width="8" height="70.62" transform="translate(30.39 166.4) rotate(-45)"/><polygon class="aj" points="184.69 19.58 176.47 11.36 168.52 19.3 162.87 13.65 176.47 .05 190.34 13.92 184.69 19.58"/><rect class="ai" x="-14.19" y="30.8" width="51.04" height="8" transform="translate(-21.29 18.2) rotate(-45)"/><rect class="bd" x="218.06" y="3.14" width="8" height="55.23" transform="translate(43.29 166.03) rotate(-45)"/><rect class="al" x="87.43" y="9.33" width="8" height="55.62" transform="translate(.52 75.53) rotate(-45)"/><polygon class="am" points="117.66 47.14 86.57 16.06 92.23 10.4 117.66 35.83 145.89 7.59 151.55 13.25 117.66 47.14"/><rect class="ak" x="56.64" y="1.09" width="8" height="11.88" transform="translate(12.79 44.94) rotate(-45)"/><rect class="an" x="112.47" y="12.41" width="14.65" height="8" transform="translate(23.49 89.52) rotate(-45)"/><rect class="ag" x="228.02" y="11.77" width="8" height="18.02" transform="translate(53.27 170.16) rotate(-45)"/><rect class="ah" x="-10.21" y="16.97" width="27.55" height="8" transform="translate(-13.78 8.67) rotate(-45.01)"/><rect class="af" x="33.47" y="3.53" width="10.45" height="8" transform="translate(6.01 29.57) rotate(-45)"/><rect class="ae" x="162.46" y="86.72" width="18.92" height="8" transform="translate(-13.79 148.15) rotate(-45)"/></g></g></g></svg>