<?xml version="1.0" encoding="UTF-8"?><svg id="b" xmlns="http://www.w3.org/2000/svg" xmlns:xlink="http://www.w3.org/1999/xlink" viewBox="0 0 138.95 253.1"><defs><style>.aa{fill:url(#u);}.ab{fill:url(#t);}.ac{fill:url(#y);}.ad{fill:url(#w);}.ae{fill:url(#x);}.af{fill:url(#z);}.ag{fill:url(#j);}.ah{fill:url(#g);}.ai{fill:url(#m);}.aj{fill:url(#h);}.ak{fill:url(#i);}.al{fill:url(#q);}.am{fill:url(#r);}.an{fill:url(#o);}.ao{fill:url(#p);}.ap{fill:url(#k);}.aq{fill:url(#n);}.ar{fill:url(#l);}.as{fill:url(#f);}.at{fill:url(#s);}.au{fill:url(#e);}.av{fill:url(#v);}.aw{fill:none;}.ax{clip-path:url(#d);}</style><clipPath id="d"><rect class="aw" width="138.95" height="253.1"/></clipPath><linearGradient id="e" x1=".16" y1="73.09" x2="80.55" y2="73.09" gradientUnits="userSpaceOnUse"><stop offset="0" stop-color="#379278"/><stop offset="1" stop-color="#1e514d"/></linearGradient><linearGradient id="f" x1="21.76" y1="75.51" x2="132.97" y2="75.51" xlink:href="#e"/><linearGradient id="g" x1="-2.02" y1="116.41" x2="59.47" y2="116.41" gradientUnits="userSpaceOnUse"><stop offset=".02" stop-color="#ef4860"/><stop offset="1" stop-color="#dd1047"/></linearGradient><linearGradient id="h" x1="11.51" y1="191.41" x2="134.97" y2="191.41" xlink:href="#e"/><linearGradient id="i" x1="-9.9" y1="202.71" x2="54.39" y2="202.71" gradientUnits="userSpaceOnUse"><stop offset="0" stop-color="#7ceee2"/><stop offset="1" stop-color="#64a2e2"/></linearGradient><linearGradient id="j" x1="31.5" y1="189.55" x2="133.04" y2="189.55" xlink:href="#e"/><linearGradient id="k" x1="92.47" y1="195.43" x2="118.92" y2="195.43" gradientTransform="translate(169.15 -17.5) rotate(45)" gradientUnits="userSpaceOnUse"><stop offset="0" stop-color="#fdd259"/><stop offset="1" stop-color="#fd8c28"/></linearGradient><linearGradient id="l" x1="51.87" y1="209.4" x2="103.24" y2="209.4" gradientUnits="userSpaceOnUse"><stop offset="0" stop-color="#2c1e3b"/><stop offset="1" stop-color="#18121f"/></linearGradient><linearGradient id="m" x1="102.32" y1="226.16" x2="132.97" y2="226.16" xlink:href="#g"/><linearGradient id="n" x1="42.34" y1="41.27" x2="138.95" y2="41.27" xlink:href="#l"/><linearGradient id="o" x1="70.04" y1="9.55" x2="100.86" y2="9.55" xlink:href="#g"/><linearGradient id="p" x1="79.89" y1="102.54" x2="135.32" y2="102.54" gradientTransform="matrix(1, 0, 0, 1, 0, 0)" xlink:href="#k"/><linearGradient id="q" x1="98.57" y1="99.5" x2="133.81" y2="99.5" xlink:href="#i"/><linearGradient id="r" x1="-2.2" y1="19.14" x2="53.39" y2="19.14" gradientTransform="translate(21.03 -12.49) rotate(45)" xlink:href="#k"/><linearGradient id="s" x1="-6.99" y1="223.87" x2="34.75" y2="223.87" gradientTransform="translate(162.37 55.76) rotate(45)" xlink:href="#k"/><linearGradient id="t" x1="-12.52" y1="13.14" x2="32.19" y2="13.14" gradientTransform="translate(12.17 -3.11) rotate(44.99)" xlink:href="#g"/><linearGradient id="u" x1="-6.27" y1="143.77" x2="38.71" y2="143.77" gradientTransform="translate(106.4 30.63) rotate(44.99)" xlink:href="#e"/><linearGradient id="v" x1="-13.33" y1="116.14" x2="26.22" y2="116.14" xlink:href="#l"/><linearGradient id="w" x1="-12.52" y1="115.41" x2="3.5" y2="115.41" gradientTransform="translate(80.28 36.99) rotate(45)" xlink:href="#i"/><linearGradient id="x" x1="-9.33" y1="3.18" x2="9.06" y2="3.18" gradientTransform="translate(2.21 1.03) rotate(45)" xlink:href="#i"/><linearGradient id="y" x1="-12.52" y1="231.63" x2="12.62" y2="231.63" gradientTransform="translate(163.81 67.81) rotate(45)" xlink:href="#e"/><linearGradient id="z" x1="60.29" y1="63.28" x2="79.32" y2="63.28" gradientTransform="translate(65.19 -30.82) rotate(45)" xlink:href="#e"/></defs><g id="c"><g class="ax"><g><polygon class="au" points="54.63 153.84 48.97 148.18 69.24 127.92 .16 58.84 66.65 -7.65 72.3 -2 11.47 58.84 80.55 127.92 54.63 153.84"/><polygon class="as" points="127.31 164.05 21.76 58.49 65.35 14.9 92.46 42 105.92 28.55 90.42 13.05 116.5 -13.03 122.16 -7.37 101.74 13.05 117.23 28.55 92.46 53.32 65.35 26.21 33.07 58.49 132.97 158.39 127.31 164.05"/><polygon class="ah" points="25.55 161.28 19.89 155.63 48.15 127.36 -2.02 77.2 3.64 71.54 59.47 127.36 25.55 161.28"/><polygon class="aj" points="76.07 250.07 11.51 185.52 43.07 153.96 54.38 165.27 86.91 132.74 134.97 180.81 129.31 186.46 86.91 144.06 54.38 176.58 43.07 165.27 22.83 185.52 81.73 244.42 76.07 250.07"/><polygon class="ak" points="48.73 244.16 -9.9 185.52 14.34 161.27 20 166.93 1.41 185.52 54.39 238.5 48.73 244.16"/><polygon class="ag" points="98.08 228.67 72.57 203.16 99.78 174.96 86.63 161.81 48.42 201.01 31.5 184.09 41.29 174.31 46.94 179.97 42.82 184.09 48.35 189.63 86.56 150.42 110.99 174.85 83.79 203.06 98.08 217.36 127.38 188.06 133.04 193.71 98.08 228.67"/><rect class="ap" x="90.99" y="191.43" width="29.41" height="8" transform="translate(-107.23 131.98) rotate(-45)"/><polygon class="ar" points="97.59 249.62 51.87 203.91 86.59 169.18 92.25 174.84 63.18 203.91 103.24 243.97 97.59 249.62"/><polygon class="ai" points="116.48 245.74 102.32 231.57 127.31 206.58 132.97 212.23 113.63 231.57 122.14 240.08 116.48 245.74"/><polygon class="aq" points="74.39 90.84 42.34 58.79 66.23 34.9 88.8 57.48 83.15 63.13 66.23 46.21 53.65 58.79 74.39 79.53 126.49 27.43 112.03 12.97 133.3 -8.3 138.95 -2.64 123.34 12.97 137.8 27.43 74.39 90.84"/><polygon class="an" points="92.76 33.49 70.04 10.77 95.2 -14.4 100.86 -8.74 81.35 10.77 98.42 27.83 92.76 33.49"/><polygon class="ao" points="128.34 143.97 79.89 95.52 114.3 61.11 135.32 82.13 129.66 87.79 114.3 72.43 91.2 95.52 134 138.32 128.34 143.97"/><polygon class="al" points="121.93 118.65 98.57 95.3 113.53 80.34 133.81 100.62 128.15 106.28 113.53 91.66 109.89 95.3 127.58 112.99 121.93 118.65"/><rect class="am" x="-9.72" y="15.14" width="70.62" height="8" transform="translate(-6.04 23.7) rotate(-45)"/><rect class="at" x="9.88" y="198.35" width="8" height="51.04" transform="translate(-154.24 75.39) rotate(-45)"/><rect class="ab" x="-17.78" y="9.14" width="55.23" height="8" transform="translate(-6.41 10.8) rotate(-44.99)"/><rect class="aa" x="-11.59" y="139.77" width="55.62" height="8" transform="translate(-96.9 53.57) rotate(-44.99)"/><polygon class="av" points="-4.86 148.63 -10.52 142.97 14.91 117.54 -13.33 89.31 -7.67 83.65 26.22 117.54 -4.86 148.63"/><rect class="ad" x="-8.51" y="108.08" width="8" height="14.65" transform="translate(-82.92 30.61) rotate(-45)"/><rect class="ae" x="-9.15" y="-.82" width="18.02" height="8" transform="translate(-2.29 .83) rotate(-45)"/><rect class="ac" x="-3.95" y="217.86" width="8" height="27.55" transform="translate(-163.78 67.88) rotate(-45)"/><rect class="af" x="65.8" y="53.83" width="8" height="18.92" transform="translate(-24.3 67.89) rotate(-45)"/></g></g></g></svg>